# 3ds Max Wavefront OBJ Exporter v0.99 - (c)2007 guruware
# 创建的文件:02.11.2022 11:22:32

mtllib 金.mtl

#
# object Cylinder001
#

v  3.8485 0.0000 2.7961
v  1.4700 0.0000 4.5241
v  -1.4700 0.0000 4.5241
v  -3.8485 0.0000 2.7961
v  -4.7570 0.0000 0.0000
v  -3.8485 0.0000 -2.7961
v  -1.4700 0.0000 -4.5241
v  1.4700 0.0000 -4.5241
v  3.8485 0.0000 -2.7961
v  4.7570 0.0000 -0.0000
v  3.8485 1.0669 -2.7961
v  4.7570 1.0669 -0.0000
v  1.4700 1.0669 -4.5241
v  -1.4700 1.0669 -4.5241
v  -3.8485 1.0669 -2.7961
v  -4.7570 1.0669 0.0000
v  -3.8485 1.0669 2.7961
v  -1.4700 1.0669 4.5241
v  1.4700 1.0669 4.5241
v  3.8485 1.0669 2.7961
# 20 vertices

vn 0.6191 -0.6437 0.4498
vn 0.2365 -0.6437 0.7278
vn -0.2365 -0.6437 0.7278
vn -0.6191 -0.6438 0.4498
vn -0.7652 -0.6438 0.0000
vn -0.6191 -0.6438 -0.4498
vn -0.2365 -0.6437 -0.7278
vn 0.2365 -0.6437 -0.7278
vn 0.6191 -0.6437 -0.4498
vn 0.7653 -0.6437 -0.0000
vn 0.6191 0.6437 -0.4498
vn 0.7653 0.6437 -0.0000
vn 0.2365 0.6437 -0.7278
vn -0.2365 0.6437 -0.7278
vn -0.6191 0.6438 -0.4498
vn -0.7652 0.6438 0.0000
vn -0.6191 0.6438 0.4498
vn -0.2365 0.6437 0.7278
vn 0.2365 0.6437 0.7278
vn 0.6191 0.6437 0.4498
# 20 vertex normals

vt 0.8376 0.3418 0.0000
vt 0.6281 0.1895 0.0000
vt 0.3691 0.1895 0.0000
vt 0.1596 0.3418 0.0000
vt 0.0795 0.5881 0.0000
vt 0.1596 0.8344 0.0000
vt 0.3691 0.9867 0.0000
vt 0.6281 0.9867 0.0000
vt 0.8376 0.8344 0.0000
vt 0.9177 0.5881 0.0000
vt 0.7687 0.0165 1.0000
vt 0.8557 0.0165 1.0000
vt 0.8557 0.1778 1.0000
vt 0.7687 0.1778 1.0000
vt 0.9427 0.0165 1.0000
vt 0.9427 0.1778 1.0000
vt 0.0727 0.0165 1.0000
vt 0.1597 0.0165 1.0000
vt 0.1597 0.1778 1.0000
vt 0.0727 0.1778 1.0000
vt 0.2467 0.0165 1.0000
vt 0.2467 0.1778 1.0000
vt 0.3337 0.0165 1.0000
vt 0.3337 0.1778 1.0000
vt 0.4207 0.0165 1.0000
vt 0.4207 0.1778 1.0000
vt 0.5077 0.0165 1.0000
vt 0.5077 0.1778 1.0000
vt 0.5947 0.0165 1.0000
vt 0.5947 0.1778 1.0000
vt 0.6817 0.0165 1.0000
vt 0.6817 0.1778 1.0000
# 32 texture coords

o Cylinder001
g Cylinder001
usemtl Material__15
s 1
f 1/1/1 2/2/2 3/3/3 4/4/4 5/5/5 6/6/6 7/7/7 8/8/8 9/9/9 10/10/10 
s 8
f 10/11/10 9/12/9 11/13/11 12/14/12 
f 9/12/9 8/15/8 13/16/13 11/13/11 
f 8/17/8 7/18/7 14/19/14 13/20/13 
f 7/18/7 6/21/6 15/22/15 14/19/14 
f 6/21/6 5/23/5 16/24/16 15/22/15 
f 5/23/5 4/25/4 17/26/17 16/24/16 
f 4/25/4 3/27/3 18/28/18 17/26/17 
f 3/27/3 2/29/2 19/30/19 18/28/18 
f 2/29/2 1/31/1 20/32/20 19/30/19 
f 1/31/1 10/11/10 12/14/12 20/32/20 
s 1
f 20/1/20 12/10/12 11/9/11 13/8/13 14/7/14 15/6/15 16/5/16 17/4/17 18/3/18 19/2/19 
# 12 polygons

#
# object Cylinder002
#

v  7.1156 -3.8485 2.7961
v  7.1156 -1.4700 4.5241
v  7.1156 1.4700 4.5241
v  7.1156 3.8485 2.7961
v  7.1156 4.7570 0.0000
v  7.1156 3.8485 -2.7961
v  7.1156 1.4700 -4.5241
v  7.1156 -1.4700 -4.5241
v  7.1156 -3.8485 -2.7961
v  7.1156 -4.7570 -0.0000
v  8.1825 -3.8485 -2.7961
v  8.1825 -4.7570 -0.0000
v  8.1825 -1.4700 -4.5241
v  8.1825 1.4700 -4.5241
v  8.1825 3.8485 -2.7961
v  8.1825 4.7570 0.0000
v  8.1825 3.8485 2.7961
v  8.1825 1.4700 4.5241
v  8.1825 -1.4700 4.5241
v  8.1825 -3.8485 2.7961
# 20 vertices

vn -0.6437 -0.6191 0.4498
vn -0.6437 -0.2365 0.7278
vn -0.6437 0.2365 0.7278
vn -0.6438 0.6191 0.4498
vn -0.6438 0.7652 0.0000
vn -0.6438 0.6191 -0.4498
vn -0.6437 0.2365 -0.7278
vn -0.6437 -0.2365 -0.7278
vn -0.6437 -0.6191 -0.4498
vn -0.6437 -0.7653 -0.0000
vn 0.6437 -0.6191 -0.4498
vn 0.6437 -0.7653 -0.0000
vn 0.6437 -0.2365 -0.7278
vn 0.6437 0.2365 -0.7278
vn 0.6438 0.6191 -0.4498
vn 0.6438 0.7652 0.0000
vn 0.6438 0.6191 0.4498
vn 0.6437 0.2365 0.7278
vn 0.6437 -0.2365 0.7278
vn 0.6437 -0.6191 0.4498
# 20 vertex normals

vt 0.8376 0.3418 0.0000
vt 0.6281 0.1895 0.0000
vt 0.3691 0.1895 0.0000
vt 0.1596 0.3418 0.0000
vt 0.0795 0.5881 0.0000
vt 0.1596 0.8344 0.0000
vt 0.3691 0.9867 0.0000
vt 0.6281 0.9867 0.0000
vt 0.8376 0.8344 0.0000
vt 0.9177 0.5881 0.0000
vt 0.7687 0.0165 1.0000
vt 0.8557 0.0165 1.0000
vt 0.8557 0.1778 1.0000
vt 0.7687 0.1778 1.0000
vt 0.9427 0.0165 1.0000
vt 0.9427 0.1778 1.0000
vt 0.0727 0.0165 1.0000
vt 0.1597 0.0165 1.0000
vt 0.1597 0.1778 1.0000
vt 0.0727 0.1778 1.0000
vt 0.2467 0.0165 1.0000
vt 0.2467 0.1778 1.0000
vt 0.3337 0.0165 1.0000
vt 0.3337 0.1778 1.0000
vt 0.4207 0.0165 1.0000
vt 0.4207 0.1778 1.0000
vt 0.5077 0.0165 1.0000
vt 0.5077 0.1778 1.0000
vt 0.5947 0.0165 1.0000
vt 0.5947 0.1778 1.0000
vt 0.6817 0.0165 1.0000
vt 0.6817 0.1778 1.0000
# 32 texture coords

o Cylinder002
g Cylinder002
usemtl Material__15
s 1
f 21/33/21 22/34/22 23/35/23 24/36/24 25/37/25 26/38/26 27/39/27 28/40/28 29/41/29 30/42/30 
s 8
f 30/43/30 29/44/29 31/45/31 32/46/32 
f 29/44/29 28/47/28 33/48/33 31/45/31 
f 28/49/28 27/50/27 34/51/34 33/52/33 
f 27/50/27 26/53/26 35/54/35 34/51/34 
f 26/53/26 25/55/25 36/56/36 35/54/35 
f 25/55/25 24/57/24 37/58/37 36/56/36 
f 24/57/24 23/59/23 38/60/38 37/58/37 
f 23/59/23 22/61/22 39/62/39 38/60/38 
f 22/61/22 21/63/21 40/64/40 39/62/39 
f 21/63/21 30/43/30 32/46/32 40/64/40 
s 1
f 40/33/40 32/42/32 31/41/31 33/40/33 34/39/34 35/38/35 36/37/36 37/36/37 38/35/38 39/34/39 
# 12 polygons

#
# object Cylinder003
#

v  17.9210 -2.8374 2.7961
v  16.3141 -1.0838 4.5241
v  14.3279 1.0838 4.5241
v  12.7210 2.8374 2.7961
v  12.1072 3.5072 0.0000
v  12.7210 2.8374 -2.7961
v  14.3279 1.0838 -4.5241
v  16.3141 -1.0838 -4.5241
v  17.9210 -2.8374 -2.7961
v  18.5348 -3.5072 -0.0000
v  18.7076 -2.1166 -2.7961
v  19.3214 -2.7864 -0.0000
v  17.1007 -0.3630 -4.5241
v  15.1145 1.8046 -4.5241
v  13.5076 3.5582 -2.7961
v  12.8939 4.2280 0.0000
v  13.5076 3.5582 2.7961
v  15.1145 1.8046 4.5241
v  17.1007 -0.3630 4.5241
v  18.7076 -2.1166 2.7961
# 20 vertices

vn -0.0563 -0.8913 0.4498
vn -0.3148 -0.6092 0.7278
vn -0.6344 -0.2605 0.7278
vn -0.8929 0.0215 0.4498
vn -0.9916 0.1292 0.0000
vn -0.8929 0.0215 -0.4498
vn -0.6344 -0.2605 -0.7278
vn -0.3148 -0.6092 -0.7278
vn -0.0563 -0.8913 -0.4498
vn 0.0424 -0.9991 -0.0000
vn 0.8929 -0.0216 -0.4498
vn 0.9916 -0.1293 -0.0000
vn 0.6344 0.2605 -0.7278
vn 0.3148 0.6092 -0.7278
vn 0.0564 0.8913 -0.4498
vn -0.0423 0.9991 0.0000
vn 0.0564 0.8913 0.4498
vn 0.3148 0.6092 0.7278
vn 0.6344 0.2605 0.7278
vn 0.8929 -0.0216 0.4498
# 20 vertex normals

vt 0.8376 0.3418 0.0000
vt 0.6281 0.1895 0.0000
vt 0.3691 0.1895 0.0000
vt 0.1596 0.3418 0.0000
vt 0.0795 0.5881 0.0000
vt 0.1596 0.8344 0.0000
vt 0.3691 0.9867 0.0000
vt 0.6281 0.9867 0.0000
vt 0.8376 0.8344 0.0000
vt 0.9177 0.5881 0.0000
vt 0.7687 0.0165 1.0000
vt 0.8557 0.0165 1.0000
vt 0.8557 0.1778 1.0000
vt 0.7687 0.1778 1.0000
vt 0.9427 0.0165 1.0000
vt 0.9427 0.1778 1.0000
vt 0.0727 0.0165 1.0000
vt 0.1597 0.0165 1.0000
vt 0.1597 0.1778 1.0000
vt 0.0727 0.1778 1.0000
vt 0.2467 0.0165 1.0000
vt 0.2467 0.1778 1.0000
vt 0.3337 0.0165 1.0000
vt 0.3337 0.1778 1.0000
vt 0.4207 0.0165 1.0000
vt 0.4207 0.1778 1.0000
vt 0.5077 0.0165 1.0000
vt 0.5077 0.1778 1.0000
vt 0.5947 0.0165 1.0000
vt 0.5947 0.1778 1.0000
vt 0.6817 0.0165 1.0000
vt 0.6817 0.1778 1.0000
# 32 texture coords

o Cylinder003
g Cylinder003
usemtl Material__15
s 1
f 41/65/41 42/66/42 43/67/43 44/68/44 45/69/45 46/70/46 47/71/47 48/72/48 49/73/49 50/74/50 
s 8
f 50/75/50 49/76/49 51/77/51 52/78/52 
f 49/76/49 48/79/48 53/80/53 51/77/51 
f 48/81/48 47/82/47 54/83/54 53/84/53 
f 47/82/47 46/85/46 55/86/55 54/83/54 
f 46/85/46 45/87/45 56/88/56 55/86/55 
f 45/87/45 44/89/44 57/90/57 56/88/56 
f 44/89/44 43/91/43 58/92/58 57/90/57 
f 43/91/43 42/93/42 59/94/59 58/92/58 
f 42/93/42 41/95/41 60/96/60 59/94/59 
f 41/95/41 50/75/50 52/78/52 60/96/60 
s 1
f 60/65/60 52/74/52 51/73/51 53/72/53 54/71/54 55/70/55 56/69/56 57/68/57 58/67/58 59/66/59 
# 12 polygons

